<?xml version="1.0" encoding="UTF-8" standalone="no"?>
<!DOCTYPE svg PUBLIC "-//W3C//DTD SVG 1.1//EN"
 "http://www.w3.org/Graphics/SVG/1.1/DTD/svg11.dtd">
<!-- Generated by graphviz version 3.0.0 (20220226.1711)
 -->
<!-- Title: G Pages: 1 -->
<svg width="2873pt" height="774pt"
 viewBox="0.00 0.00 2873.20 773.98" xmlns="http://www.w3.org/2000/svg" xmlns:xlink="http://www.w3.org/1999/xlink">
<g id="graph0" class="graph" transform="scale(1 1) rotate(0) translate(21.6 752.38)">
<title>G</title>
<polygon fill="#111111" stroke="transparent" points="-21.6,21.6 -21.6,-752.38 2851.6,-752.38 2851.6,21.6 -21.6,21.6"/>
<!-- app.ts -->
<g id="node1" class="node">
<title>app.ts</title>
<path fill="none" stroke="#c6c5fe" d="M145.33,-311.28C145.33,-311.28 106.67,-311.28 106.67,-311.28 102.83,-311.28 99,-307.45 99,-303.61 99,-303.61 99,-295.95 99,-295.95 99,-292.11 102.83,-288.28 106.67,-288.28 106.67,-288.28 145.33,-288.28 145.33,-288.28 149.17,-288.28 153,-292.11 153,-295.95 153,-295.95 153,-303.61 153,-303.61 153,-307.45 149.17,-311.28 145.33,-311.28"/>
<text text-anchor="middle" x="126" y="-296.08" font-family="Arial" font-size="14.00" fill="#c6c5fe">app.ts</text>
</g>
<!-- server.ts -->
<g id="node2" class="node">
<title>server.ts</title>
<path fill="none" stroke="#c6c5fe" d="M314.83,-472.28C314.83,-472.28 262.17,-472.28 262.17,-472.28 258.33,-472.28 254.5,-468.45 254.5,-464.61 254.5,-464.61 254.5,-456.95 254.5,-456.95 254.5,-453.11 258.33,-449.28 262.17,-449.28 262.17,-449.28 314.83,-449.28 314.83,-449.28 318.67,-449.28 322.5,-453.11 322.5,-456.95 322.5,-456.95 322.5,-464.61 322.5,-464.61 322.5,-468.45 318.67,-472.28 314.83,-472.28"/>
<text text-anchor="middle" x="288.5" y="-457.08" font-family="Arial" font-size="14.00" fill="#c6c5fe">server.ts</text>
</g>
<!-- app.ts&#45;&gt;server.ts -->
<g id="edge1" class="edge">
<title>app.ts&#45;&gt;server.ts</title>
<path fill="none" stroke="#757575" d="M138.54,-311.36C165.83,-338.73 234.52,-407.64 268.23,-441.46"/>
<polygon fill="#757575" stroke="#757575" points="266.09,-444.26 275.63,-448.87 271.05,-439.32 266.09,-444.26"/>
</g>
<!-- services/database/database.ts -->
<g id="node3" class="node">
<title>services/database/database.ts</title>
<path fill="none" stroke="#c6c5fe" d="M380.33,-111.28C380.33,-111.28 196.67,-111.28 196.67,-111.28 192.83,-111.28 189,-107.45 189,-103.61 189,-103.61 189,-95.95 189,-95.95 189,-92.11 192.83,-88.28 196.67,-88.28 196.67,-88.28 380.33,-88.28 380.33,-88.28 384.17,-88.28 388,-92.11 388,-95.95 388,-95.95 388,-103.61 388,-103.61 388,-107.45 384.17,-111.28 380.33,-111.28"/>
<text text-anchor="middle" x="288.5" y="-96.08" font-family="Arial" font-size="14.00" fill="#c6c5fe">services/database/database.ts</text>
</g>
<!-- app.ts&#45;&gt;services/database/database.ts -->
<g id="edge2" class="edge">
<title>app.ts&#45;&gt;services/database/database.ts</title>
<path fill="none" stroke="#757575" d="M127.57,-288.03C129.75,-256.74 140.13,-170.7 189,-125.78 193.15,-121.97 197.79,-118.7 202.75,-115.9"/>
<polygon fill="#757575" stroke="#757575" points="204.53,-118.92 211.95,-111.35 201.43,-112.65 204.53,-118.92"/>
</g>
<!-- services/documentation/documentation.ts -->
<g id="node4" class="node">
<title>services/documentation/documentation.ts</title>
<path fill="none" stroke="#c6c5fe" d="M1402.33,-113.28C1402.33,-113.28 1151.67,-113.28 1151.67,-113.28 1147.83,-113.28 1144,-109.45 1144,-105.61 1144,-105.61 1144,-97.95 1144,-97.95 1144,-94.11 1147.83,-90.28 1151.67,-90.28 1151.67,-90.28 1402.33,-90.28 1402.33,-90.28 1406.17,-90.28 1410,-94.11 1410,-97.95 1410,-97.95 1410,-105.61 1410,-105.61 1410,-109.45 1406.17,-113.28 1402.33,-113.28"/>
<text text-anchor="middle" x="1277" y="-98.08" font-family="Arial" font-size="14.00" fill="#c6c5fe">services/documentation/documentation.ts</text>
</g>
<!-- app.ts&#45;&gt;services/documentation/documentation.ts -->
<g id="edge3" class="edge">
<title>app.ts&#45;&gt;services/documentation/documentation.ts</title>
<path fill="none" stroke="#757575" d="M143.48,-288.27C197.69,-251.59 376.43,-139.78 541.5,-139.78 541.5,-139.78 541.5,-139.78 768,-139.78 907.08,-139.78 1066.99,-125.44 1169.66,-114.38"/>
<polygon fill="#757575" stroke="#757575" points="1170.15,-117.85 1179.72,-113.29 1169.4,-110.89 1170.15,-117.85"/>
</g>
<!-- services/logger/logger.ts -->
<g id="node5" class="node">
<title>services/logger/logger.ts</title>
<path fill="none" stroke="#c6c5fe" d="M1690.33,-588.28C1690.33,-588.28 1543.67,-588.28 1543.67,-588.28 1539.83,-588.28 1536,-584.45 1536,-580.61 1536,-580.61 1536,-572.95 1536,-572.95 1536,-569.11 1539.83,-565.28 1543.67,-565.28 1543.67,-565.28 1690.33,-565.28 1690.33,-565.28 1694.17,-565.28 1698,-569.11 1698,-572.95 1698,-572.95 1698,-580.61 1698,-580.61 1698,-584.45 1694.17,-588.28 1690.33,-588.28"/>
<text text-anchor="middle" x="1617" y="-573.08" font-family="Arial" font-size="14.00" fill="#c6c5fe">services/logger/logger.ts</text>
</g>
<!-- app.ts&#45;&gt;services/logger/logger.ts -->
<g id="edge4" class="edge">
<title>app.ts&#45;&gt;services/logger/logger.ts</title>
<path fill="none" stroke="#757575" d="M128.75,-311.34C133.75,-341.52 150.35,-424.32 189,-480.78 297.5,-639.27 349.43,-730.78 541.5,-730.78 541.5,-730.78 541.5,-730.78 991.5,-730.78 1179.28,-730.78 1229.9,-725.92 1410,-672.78 1476.29,-653.22 1548.3,-615.49 1587.18,-593.6"/>
<polygon fill="#757575" stroke="#757575" points="1589.36,-596.39 1596.32,-588.4 1585.9,-590.31 1589.36,-596.39"/>
</g>
<!-- server.ts&#45;&gt;services/logger/logger.ts -->
<g id="edge39" class="edge">
<title>server.ts&#45;&gt;services/logger/logger.ts</title>
<path fill="none" stroke="#757575" d="M294.7,-472.61C309.58,-504.88 355.65,-594.78 424,-635.78 556.14,-715.05 611.9,-692.78 766,-692.78 766,-692.78 766,-692.78 991.5,-692.78 1211.35,-692.78 1467.51,-622.43 1570.1,-591.3"/>
<polygon fill="#757575" stroke="#757575" points="1571.29,-594.6 1579.83,-588.33 1569.25,-587.91 1571.29,-594.6"/>
</g>
<!-- endpoints/auth/login.ts -->
<g id="node6" class="node">
<title>endpoints/auth/login.ts</title>
<path fill="none" stroke="#c6c5fe" d="M610.83,-352.28C610.83,-352.28 474.17,-352.28 474.17,-352.28 470.33,-352.28 466.5,-348.45 466.5,-344.61 466.5,-344.61 466.5,-336.95 466.5,-336.95 466.5,-333.11 470.33,-329.28 474.17,-329.28 474.17,-329.28 610.83,-329.28 610.83,-329.28 614.67,-329.28 618.5,-333.11 618.5,-336.95 618.5,-336.95 618.5,-344.61 618.5,-344.61 618.5,-348.45 614.67,-352.28 610.83,-352.28"/>
<text text-anchor="middle" x="542.5" y="-337.08" font-family="Arial" font-size="14.00" fill="#c6c5fe">endpoints/auth/login.ts</text>
</g>
<!-- server.ts&#45;&gt;endpoints/auth/login.ts -->
<g id="edge32" class="edge">
<title>server.ts&#45;&gt;endpoints/auth/login.ts</title>
<path fill="none" stroke="#757575" d="M300.88,-449.27C322.66,-428.01 372.63,-382.74 424,-360.78 434.23,-356.41 445.34,-352.99 456.52,-350.32"/>
<polygon fill="#757575" stroke="#757575" points="457.32,-353.73 466.33,-348.16 455.81,-346.89 457.32,-353.73"/>
</g>
<!-- endpoints/endpoint.ts -->
<g id="node9" class="node">
<title>endpoints/endpoint.ts</title>
<path fill="none" stroke="#c6c5fe" d="M1055.33,-191.28C1055.33,-191.28 925.67,-191.28 925.67,-191.28 921.83,-191.28 918,-187.45 918,-183.61 918,-183.61 918,-175.95 918,-175.95 918,-172.11 921.83,-168.28 925.67,-168.28 925.67,-168.28 1055.33,-168.28 1055.33,-168.28 1059.17,-168.28 1063,-172.11 1063,-175.95 1063,-175.95 1063,-183.61 1063,-183.61 1063,-187.45 1059.17,-191.28 1055.33,-191.28"/>
<text text-anchor="middle" x="990.5" y="-176.08" font-family="Arial" font-size="14.00" fill="#c6c5fe">endpoints/endpoint.ts</text>
</g>
<!-- server.ts&#45;&gt;endpoints/endpoint.ts -->
<g id="edge33" class="edge">
<title>server.ts&#45;&gt;endpoints/endpoint.ts</title>
<path fill="none" stroke="#757575" d="M297.04,-449.19C315.32,-422.04 364.9,-354.08 424,-319.78 579.82,-229.35 792.58,-196.99 907.6,-185.66"/>
<polygon fill="#757575" stroke="#757575" points="908.12,-189.13 917.75,-184.69 907.46,-182.16 908.12,-189.13"/>
</g>
<!-- endpoints/types/RestMethod.ts -->
<g id="node13" class="node">
<title>endpoints/types/RestMethod.ts</title>
<path fill="none" stroke="#cfffac" d="M1370.83,-352.28C1370.83,-352.28 1183.17,-352.28 1183.17,-352.28 1179.33,-352.28 1175.5,-348.45 1175.5,-344.61 1175.5,-344.61 1175.5,-336.95 1175.5,-336.95 1175.5,-333.11 1179.33,-329.28 1183.17,-329.28 1183.17,-329.28 1370.83,-329.28 1370.83,-329.28 1374.67,-329.28 1378.5,-333.11 1378.5,-336.95 1378.5,-336.95 1378.5,-344.61 1378.5,-344.61 1378.5,-348.45 1374.67,-352.28 1370.83,-352.28"/>
<text text-anchor="middle" x="1277" y="-337.08" font-family="Arial" font-size="14.00" fill="#cfffac">endpoints/types/RestMethod.ts</text>
</g>
<!-- server.ts&#45;&gt;endpoints/types/RestMethod.ts -->
<g id="edge34" class="edge">
<title>server.ts&#45;&gt;endpoints/types/RestMethod.ts</title>
<path fill="none" stroke="#757575" d="M322.75,-462.2C456.74,-467.58 957.08,-484.29 1108,-440.78 1165.83,-424.11 1224.16,-382.55 1254.54,-358.59"/>
<polygon fill="#757575" stroke="#757575" points="1256.73,-361.31 1262.34,-352.33 1252.35,-355.85 1256.73,-361.31"/>
</g>
<!-- endpoints/user/getUsers.ts -->
<g id="node20" class="node">
<title>endpoints/user/getUsers.ts</title>
<path fill="none" stroke="#c6c5fe" d="M623.33,-393.28C623.33,-393.28 461.67,-393.28 461.67,-393.28 457.83,-393.28 454,-389.45 454,-385.61 454,-385.61 454,-377.95 454,-377.95 454,-374.11 457.83,-370.28 461.67,-370.28 461.67,-370.28 623.33,-370.28 623.33,-370.28 627.17,-370.28 631,-374.11 631,-377.95 631,-377.95 631,-385.61 631,-385.61 631,-389.45 627.17,-393.28 623.33,-393.28"/>
<text text-anchor="middle" x="542.5" y="-378.08" font-family="Arial" font-size="14.00" fill="#c6c5fe">endpoints/user/getUsers.ts</text>
</g>
<!-- server.ts&#45;&gt;endpoints/user/getUsers.ts -->
<g id="edge35" class="edge">
<title>server.ts&#45;&gt;endpoints/user/getUsers.ts</title>
<path fill="none" stroke="#757575" d="M322.7,-450.37C366.81,-436.55 444.95,-412.05 494.93,-396.38"/>
<polygon fill="#757575" stroke="#757575" points="496.04,-399.7 504.54,-393.37 493.95,-393.02 496.04,-399.7"/>
</g>
<!-- middlewares/authMiddleware.ts -->
<g id="node22" class="node">
<title>middlewares/authMiddleware.ts</title>
<path fill="none" stroke="#c6c5fe" d="M638.33,-512.28C638.33,-512.28 446.67,-512.28 446.67,-512.28 442.83,-512.28 439,-508.45 439,-504.61 439,-504.61 439,-496.95 439,-496.95 439,-493.11 442.83,-489.28 446.67,-489.28 446.67,-489.28 638.33,-489.28 638.33,-489.28 642.17,-489.28 646,-493.11 646,-496.95 646,-496.95 646,-504.61 646,-504.61 646,-508.45 642.17,-512.28 638.33,-512.28"/>
<text text-anchor="middle" x="542.5" y="-497.08" font-family="Arial" font-size="14.00" fill="#c6c5fe">middlewares/authMiddleware.ts</text>
</g>
<!-- server.ts&#45;&gt;middlewares/authMiddleware.ts -->
<g id="edge36" class="edge">
<title>server.ts&#45;&gt;middlewares/authMiddleware.ts</title>
<path fill="none" stroke="#757575" d="M322.7,-466.05C357.19,-471.53 412.5,-480.31 458.88,-487.67"/>
<polygon fill="#757575" stroke="#757575" points="458.51,-491.15 468.93,-489.26 459.6,-484.24 458.51,-491.15"/>
</g>
<!-- middlewares/loggerMiddleware.ts -->
<g id="node24" class="node">
<title>middlewares/loggerMiddleware.ts</title>
<path fill="none" stroke="#c6c5fe" d="M643.83,-626.28C643.83,-626.28 441.17,-626.28 441.17,-626.28 437.33,-626.28 433.5,-622.45 433.5,-618.61 433.5,-618.61 433.5,-610.95 433.5,-610.95 433.5,-607.11 437.33,-603.28 441.17,-603.28 441.17,-603.28 643.83,-603.28 643.83,-603.28 647.67,-603.28 651.5,-607.11 651.5,-610.95 651.5,-610.95 651.5,-618.61 651.5,-618.61 651.5,-622.45 647.67,-626.28 643.83,-626.28"/>
<text text-anchor="middle" x="542.5" y="-611.08" font-family="Arial" font-size="14.00" fill="#c6c5fe">middlewares/loggerMiddleware.ts</text>
</g>
<!-- server.ts&#45;&gt;middlewares/loggerMiddleware.ts -->
<g id="edge37" class="edge">
<title>server.ts&#45;&gt;middlewares/loggerMiddleware.ts</title>
<path fill="none" stroke="#757575" d="M298.11,-472.51C317.51,-498.01 367.38,-558.64 424,-588.78 432.71,-593.42 442.21,-597.23 451.91,-600.37"/>
<polygon fill="#757575" stroke="#757575" points="451.07,-603.77 461.66,-603.28 453.08,-597.06 451.07,-603.77"/>
</g>
<!-- middlewares/securityMiddleware.ts -->
<g id="node26" class="node">
<title>middlewares/securityMiddleware.ts</title>
<path fill="none" stroke="#c6c5fe" d="M1096.33,-588.28C1096.33,-588.28 884.67,-588.28 884.67,-588.28 880.83,-588.28 877,-584.45 877,-580.61 877,-580.61 877,-572.95 877,-572.95 877,-569.11 880.83,-565.28 884.67,-565.28 884.67,-565.28 1096.33,-565.28 1096.33,-565.28 1100.17,-565.28 1104,-569.11 1104,-572.95 1104,-572.95 1104,-580.61 1104,-580.61 1104,-584.45 1100.17,-588.28 1096.33,-588.28"/>
<text text-anchor="middle" x="990.5" y="-573.08" font-family="Arial" font-size="14.00" fill="#c6c5fe">middlewares/securityMiddleware.ts</text>
</g>
<!-- server.ts&#45;&gt;middlewares/securityMiddleware.ts -->
<g id="edge38" class="edge">
<title>server.ts&#45;&gt;middlewares/securityMiddleware.ts</title>
<path fill="none" stroke="#757575" d="M310.18,-472.45C335.96,-486.42 381.8,-509.35 424,-520.78 572.71,-561.06 750.42,-573.04 866.41,-576.25"/>
<polygon fill="#757575" stroke="#757575" points="866.65,-579.76 876.74,-576.52 866.84,-572.76 866.65,-579.76"/>
</g>
<!-- services/database/external/mongo.ts -->
<g id="node28" class="node">
<title>services/database/external/mongo.ts</title>
<path fill="none" stroke="#cfffac" d="M653.33,-111.28C653.33,-111.28 431.67,-111.28 431.67,-111.28 427.83,-111.28 424,-107.45 424,-103.61 424,-103.61 424,-95.95 424,-95.95 424,-92.11 427.83,-88.28 431.67,-88.28 431.67,-88.28 653.33,-88.28 653.33,-88.28 657.17,-88.28 661,-92.11 661,-95.95 661,-95.95 661,-103.61 661,-103.61 661,-107.45 657.17,-111.28 653.33,-111.28"/>
<text text-anchor="middle" x="542.5" y="-96.08" font-family="Arial" font-size="14.00" fill="#cfffac">services/database/external/mongo.ts</text>
</g>
<!-- services/database/database.ts&#45;&gt;services/database/external/mongo.ts -->
<g id="edge42" class="edge">
<title>services/database/database.ts&#45;&gt;services/database/external/mongo.ts</title>
<path fill="none" stroke="#757575" d="M388.01,-99.78C396.45,-99.78 405.05,-99.78 413.67,-99.78"/>
<polygon fill="#757575" stroke="#757575" points="413.78,-103.28 423.78,-99.78 413.78,-96.28 413.78,-103.28"/>
</g>
<!-- services/documentation/types/DocumentationInput.ts -->
<g id="node14" class="node">
<title>services/documentation/types/DocumentationInput.ts</title>
<path fill="none" stroke="#cfffac" d="M2571.83,-87.28C2571.83,-87.28 2252.17,-87.28 2252.17,-87.28 2248.33,-87.28 2244.5,-83.45 2244.5,-79.61 2244.5,-79.61 2244.5,-71.95 2244.5,-71.95 2244.5,-68.11 2248.33,-64.28 2252.17,-64.28 2252.17,-64.28 2571.83,-64.28 2571.83,-64.28 2575.67,-64.28 2579.5,-68.11 2579.5,-71.95 2579.5,-71.95 2579.5,-79.61 2579.5,-79.61 2579.5,-83.45 2575.67,-87.28 2571.83,-87.28"/>
<text text-anchor="middle" x="2412" y="-72.08" font-family="Arial" font-size="14.00" fill="#cfffac">services/documentation/types/DocumentationInput.ts</text>
</g>
<!-- services/documentation/documentation.ts&#45;&gt;services/documentation/types/DocumentationInput.ts -->
<g id="edge45" class="edge">
<title>services/documentation/documentation.ts&#45;&gt;services/documentation/types/DocumentationInput.ts</title>
<path fill="none" stroke="#757575" d="M1410.19,-98.75C1614.23,-94.07 2006.15,-85.07 2234.31,-79.84"/>
<polygon fill="#757575" stroke="#757575" points="2234.46,-83.33 2244.37,-79.61 2234.3,-76.34 2234.46,-83.33"/>
</g>
<!-- services/documentation/external/openAPI3.ts -->
<g id="node29" class="node">
<title>services/documentation/external/openAPI3.ts</title>
<path fill="none" stroke="#c6c5fe" d="M1753.33,-34.28C1753.33,-34.28 1480.67,-34.28 1480.67,-34.28 1476.83,-34.28 1473,-30.45 1473,-26.61 1473,-26.61 1473,-18.95 1473,-18.95 1473,-15.11 1476.83,-11.28 1480.67,-11.28 1480.67,-11.28 1753.33,-11.28 1753.33,-11.28 1757.17,-11.28 1761,-15.11 1761,-18.95 1761,-18.95 1761,-26.61 1761,-26.61 1761,-30.45 1757.17,-34.28 1753.33,-34.28"/>
<text text-anchor="middle" x="1617" y="-19.08" font-family="Arial" font-size="14.00" fill="#c6c5fe">services/documentation/external/openAPI3.ts</text>
</g>
<!-- services/documentation/documentation.ts&#45;&gt;services/documentation/external/openAPI3.ts -->
<g id="edge43" class="edge">
<title>services/documentation/documentation.ts&#45;&gt;services/documentation/external/openAPI3.ts</title>
<path fill="none" stroke="#757575" d="M1305.1,-90.17C1337.85,-76.63 1394.95,-54.6 1446,-42.78 1457.31,-40.16 1469.13,-37.88 1481.03,-35.89"/>
<polygon fill="#757575" stroke="#757575" points="1481.72,-39.32 1491.04,-34.28 1480.61,-32.41 1481.72,-39.32"/>
</g>
<!-- services/documentation/external/swaggerUIExpress.ts -->
<g id="node30" class="node">
<title>services/documentation/external/swaggerUIExpress.ts</title>
<path fill="none" stroke="#cfffac" d="M1780.33,-75.28C1780.33,-75.28 1453.67,-75.28 1453.67,-75.28 1449.83,-75.28 1446,-71.45 1446,-67.61 1446,-67.61 1446,-59.95 1446,-59.95 1446,-56.11 1449.83,-52.28 1453.67,-52.28 1453.67,-52.28 1780.33,-52.28 1780.33,-52.28 1784.17,-52.28 1788,-56.11 1788,-59.95 1788,-59.95 1788,-67.61 1788,-67.61 1788,-71.45 1784.17,-75.28 1780.33,-75.28"/>
<text text-anchor="middle" x="1617" y="-60.08" font-family="Arial" font-size="14.00" fill="#cfffac">services/documentation/external/swaggerUIExpress.ts</text>
</g>
<!-- services/documentation/documentation.ts&#45;&gt;services/documentation/external/swaggerUIExpress.ts -->
<g id="edge44" class="edge">
<title>services/documentation/documentation.ts&#45;&gt;services/documentation/external/swaggerUIExpress.ts</title>
<path fill="none" stroke="#757575" d="M1380.33,-90.28C1419.2,-85.91 1463.67,-80.91 1503.43,-76.44"/>
<polygon fill="#757575" stroke="#757575" points="1503.89,-79.91 1513.44,-75.31 1503.11,-72.95 1503.89,-79.91"/>
</g>
<!-- services/logger/external/google.ts -->
<g id="node33" class="node">
<title>services/logger/external/google.ts</title>
<path fill="none" stroke="#c6c5fe" d="M2114.83,-588.28C2114.83,-588.28 1912.17,-588.28 1912.17,-588.28 1908.33,-588.28 1904.5,-584.45 1904.5,-580.61 1904.5,-580.61 1904.5,-572.95 1904.5,-572.95 1904.5,-569.11 1908.33,-565.28 1912.17,-565.28 1912.17,-565.28 2114.83,-565.28 2114.83,-565.28 2118.67,-565.28 2122.5,-569.11 2122.5,-572.95 2122.5,-572.95 2122.5,-580.61 2122.5,-580.61 2122.5,-584.45 2118.67,-588.28 2114.83,-588.28"/>
<text text-anchor="middle" x="2013.5" y="-573.08" font-family="Arial" font-size="14.00" fill="#c6c5fe">services/logger/external/google.ts</text>
</g>
<!-- services/logger/logger.ts&#45;&gt;services/logger/external/google.ts -->
<g id="edge54" class="edge">
<title>services/logger/logger.ts&#45;&gt;services/logger/external/google.ts</title>
<path fill="none" stroke="#757575" d="M1698.31,-576.78C1754.66,-576.78 1830.93,-576.78 1894.22,-576.78"/>
<polygon fill="#757575" stroke="#757575" points="1894.26,-580.28 1904.26,-576.78 1894.26,-573.28 1894.26,-580.28"/>
</g>
<!-- services/logger/external/sentry.ts -->
<g id="node35" class="node">
<title>services/logger/external/sentry.ts</title>
<path fill="none" stroke="#c6c5fe" d="M2112.33,-629.28C2112.33,-629.28 1914.67,-629.28 1914.67,-629.28 1910.83,-629.28 1907,-625.45 1907,-621.61 1907,-621.61 1907,-613.95 1907,-613.95 1907,-610.11 1910.83,-606.28 1914.67,-606.28 1914.67,-606.28 2112.33,-606.28 2112.33,-606.28 2116.17,-606.28 2120,-610.11 2120,-613.95 2120,-613.95 2120,-621.61 2120,-621.61 2120,-625.45 2116.17,-629.28 2112.33,-629.28"/>
<text text-anchor="middle" x="2013.5" y="-614.08" font-family="Arial" font-size="14.00" fill="#c6c5fe">services/logger/external/sentry.ts</text>
</g>
<!-- services/logger/logger.ts&#45;&gt;services/logger/external/sentry.ts -->
<g id="edge55" class="edge">
<title>services/logger/logger.ts&#45;&gt;services/logger/external/sentry.ts</title>
<path fill="none" stroke="#757575" d="M1698.31,-585.13C1755.41,-591.06 1832.96,-599.12 1896.73,-605.75"/>
<polygon fill="#757575" stroke="#757575" points="1896.53,-609.25 1906.84,-606.8 1897.26,-602.29 1896.53,-609.25"/>
</g>
<!-- services/logger/types/Severity.ts -->
<g id="node37" class="node">
<title>services/logger/types/Severity.ts</title>
<path fill="none" stroke="#cfffac" d="M2822.33,-629.28C2822.33,-629.28 2628.67,-629.28 2628.67,-629.28 2624.83,-629.28 2621,-625.45 2621,-621.61 2621,-621.61 2621,-613.95 2621,-613.95 2621,-610.11 2624.83,-606.28 2628.67,-606.28 2628.67,-606.28 2822.33,-606.28 2822.33,-606.28 2826.17,-606.28 2830,-610.11 2830,-613.95 2830,-613.95 2830,-621.61 2830,-621.61 2830,-625.45 2826.17,-629.28 2822.33,-629.28"/>
<text text-anchor="middle" x="2725.5" y="-614.08" font-family="Arial" font-size="14.00" fill="#cfffac">services/logger/types/Severity.ts</text>
</g>
<!-- services/logger/logger.ts&#45;&gt;services/logger/types/Severity.ts -->
<g id="edge57" class="edge">
<title>services/logger/logger.ts&#45;&gt;services/logger/types/Severity.ts</title>
<path fill="none" stroke="#757575" d="M1698.08,-566.71C1736.15,-562.41 1782.35,-557.9 1824,-555.78 2161.79,-538.61 2254.15,-485.57 2585,-555.78 2625.82,-564.44 2669.19,-585.9 2696.54,-601.14"/>
<polygon fill="#757575" stroke="#757575" points="2695.09,-604.34 2705.51,-606.24 2698.55,-598.26 2695.09,-604.34"/>
</g>
<!-- services/logger/types/LoggerOptions.ts -->
<g id="node38" class="node">
<title>services/logger/types/LoggerOptions.ts</title>
<path fill="none" stroke="#cfffac" d="M2131.33,-508.28C2131.33,-508.28 1895.67,-508.28 1895.67,-508.28 1891.83,-508.28 1888,-504.45 1888,-500.61 1888,-500.61 1888,-492.95 1888,-492.95 1888,-489.11 1891.83,-485.28 1895.67,-485.28 1895.67,-485.28 2131.33,-485.28 2131.33,-485.28 2135.17,-485.28 2139,-489.11 2139,-492.95 2139,-492.95 2139,-500.61 2139,-500.61 2139,-504.45 2135.17,-508.28 2131.33,-508.28"/>
<text text-anchor="middle" x="2013.5" y="-493.08" font-family="Arial" font-size="14.00" fill="#cfffac">services/logger/types/LoggerOptions.ts</text>
</g>
<!-- services/logger/logger.ts&#45;&gt;services/logger/types/LoggerOptions.ts -->
<g id="edge56" class="edge">
<title>services/logger/logger.ts&#45;&gt;services/logger/types/LoggerOptions.ts</title>
<path fill="none" stroke="#757575" d="M1656.41,-565.24C1697.54,-553.23 1764.9,-534.56 1824,-522.78 1849.17,-517.77 1876.42,-513.4 1902.18,-509.75"/>
<polygon fill="#757575" stroke="#757575" points="1902.92,-513.18 1912.34,-508.34 1901.96,-506.25 1902.92,-513.18"/>
</g>
<!-- endpoints/imports.ts -->
<g id="node7" class="node">
<title>endpoints/imports.ts</title>
<path fill="none" stroke="#c6c5fe" d="M828.33,-309.28C828.33,-309.28 705.67,-309.28 705.67,-309.28 701.83,-309.28 698,-305.45 698,-301.61 698,-301.61 698,-293.95 698,-293.95 698,-290.11 701.83,-286.28 705.67,-286.28 705.67,-286.28 828.33,-286.28 828.33,-286.28 832.17,-286.28 836,-290.11 836,-293.95 836,-293.95 836,-301.61 836,-301.61 836,-305.45 832.17,-309.28 828.33,-309.28"/>
<text text-anchor="middle" x="767" y="-294.08" font-family="Arial" font-size="14.00" fill="#c6c5fe">endpoints/imports.ts</text>
</g>
<!-- endpoints/auth/login.ts&#45;&gt;endpoints/imports.ts -->
<g id="edge5" class="edge">
<title>endpoints/auth/login.ts&#45;&gt;endpoints/imports.ts</title>
<path fill="none" stroke="#757575" d="M603.13,-329.26C631.81,-323.72 666.37,-317.04 696.27,-311.26"/>
<polygon fill="#757575" stroke="#757575" points="697.06,-314.67 706.21,-309.34 695.73,-307.8 697.06,-314.67"/>
</g>
<!-- entities/user.ts -->
<g id="node8" class="node">
<title>entities/user.ts</title>
<path fill="none" stroke="#cfffac" d="M1034.33,-391.28C1034.33,-391.28 946.67,-391.28 946.67,-391.28 942.83,-391.28 939,-387.45 939,-383.61 939,-383.61 939,-375.95 939,-375.95 939,-372.11 942.83,-368.28 946.67,-368.28 946.67,-368.28 1034.33,-368.28 1034.33,-368.28 1038.17,-368.28 1042,-372.11 1042,-375.95 1042,-375.95 1042,-383.61 1042,-383.61 1042,-387.45 1038.17,-391.28 1034.33,-391.28"/>
<text text-anchor="middle" x="990.5" y="-376.08" font-family="Arial" font-size="14.00" fill="#cfffac">entities/user.ts</text>
</g>
<!-- endpoints/auth/login.ts&#45;&gt;entities/user.ts -->
<g id="edge6" class="edge">
<title>endpoints/auth/login.ts&#45;&gt;entities/user.ts</title>
<path fill="none" stroke="#757575" d="M618.65,-347.35C705.91,-354.98 848.12,-367.42 928.72,-374.47"/>
<polygon fill="#757575" stroke="#757575" points="928.45,-377.96 938.72,-375.34 929.06,-370.98 928.45,-377.96"/>
</g>
<!-- endpoints/imports.ts&#45;&gt;endpoints/endpoint.ts -->
<g id="edge14" class="edge">
<title>endpoints/imports.ts&#45;&gt;endpoints/endpoint.ts</title>
<path fill="none" stroke="#757575" d="M779.8,-286.08C802.55,-263.77 852.03,-216.42 873,-205.78 883.94,-200.23 896.04,-195.86 908.19,-192.42"/>
<polygon fill="#757575" stroke="#757575" points="909.15,-195.78 917.93,-189.85 907.36,-189.01 909.15,-195.78"/>
</g>
<!-- endpoints/imports.ts&#45;&gt;endpoints/types/RestMethod.ts -->
<g id="edge17" class="edge">
<title>endpoints/imports.ts&#45;&gt;endpoints/types/RestMethod.ts</title>
<path fill="none" stroke="#757575" d="M815.27,-286.27C833.23,-282.44 853.95,-278.67 873,-276.78 976.94,-266.49 1012.05,-235.51 1108,-276.78 1129.37,-285.97 1123.62,-303.56 1144,-314.78 1152.28,-319.34 1161.23,-323.11 1170.45,-326.22"/>
<polygon fill="#757575" stroke="#757575" points="1169.54,-329.6 1180.12,-329.23 1171.62,-322.92 1169.54,-329.6"/>
</g>
<!-- endpoints/types/Request.ts -->
<g id="node16" class="node">
<title>endpoints/types/Request.ts</title>
<path fill="none" stroke="#cfffac" d="M1072.33,-350.28C1072.33,-350.28 908.67,-350.28 908.67,-350.28 904.83,-350.28 901,-346.45 901,-342.61 901,-342.61 901,-334.95 901,-334.95 901,-331.11 904.83,-327.28 908.67,-327.28 908.67,-327.28 1072.33,-327.28 1072.33,-327.28 1076.17,-327.28 1080,-331.11 1080,-334.95 1080,-334.95 1080,-342.61 1080,-342.61 1080,-346.45 1076.17,-350.28 1072.33,-350.28"/>
<text text-anchor="middle" x="990.5" y="-335.08" font-family="Arial" font-size="14.00" fill="#cfffac">endpoints/types/Request.ts</text>
</g>
<!-- endpoints/imports.ts&#45;&gt;endpoints/types/Request.ts -->
<g id="edge15" class="edge">
<title>endpoints/imports.ts&#45;&gt;endpoints/types/Request.ts</title>
<path fill="none" stroke="#757575" d="M827.95,-309.31C842.68,-312.11 858.4,-315.08 873,-317.78 886.5,-320.28 900.88,-322.91 914.77,-325.42"/>
<polygon fill="#757575" stroke="#757575" points="914.31,-328.9 924.78,-327.23 915.56,-322.01 914.31,-328.9"/>
</g>
<!-- endpoints/types/Response.ts -->
<g id="node17" class="node">
<title>endpoints/types/Response.ts</title>
<path fill="none" stroke="#c6c5fe" d="M1364.33,-272.28C1364.33,-272.28 1189.67,-272.28 1189.67,-272.28 1185.83,-272.28 1182,-268.45 1182,-264.61 1182,-264.61 1182,-256.95 1182,-256.95 1182,-253.11 1185.83,-249.28 1189.67,-249.28 1189.67,-249.28 1364.33,-249.28 1364.33,-249.28 1368.17,-249.28 1372,-253.11 1372,-256.95 1372,-256.95 1372,-264.61 1372,-264.61 1372,-268.45 1368.17,-272.28 1364.33,-272.28"/>
<text text-anchor="middle" x="1277" y="-257.08" font-family="Arial" font-size="14.00" fill="#c6c5fe">endpoints/types/Response.ts</text>
</g>
<!-- endpoints/imports.ts&#45;&gt;endpoints/types/Response.ts -->
<g id="edge16" class="edge">
<title>endpoints/imports.ts&#45;&gt;endpoints/types/Response.ts</title>
<path fill="none" stroke="#757575" d="M784.47,-286.13C804.36,-272.85 839.33,-251.93 873,-243.78 974.51,-219.21 1003.69,-238.52 1108,-243.78 1128.73,-244.83 1150.84,-246.59 1171.98,-248.6"/>
<polygon fill="#757575" stroke="#757575" points="1171.65,-252.09 1181.94,-249.58 1172.33,-245.12 1171.65,-252.09"/>
</g>
<!-- types/Empty.ts -->
<g id="node18" class="node">
<title>types/Empty.ts</title>
<path fill="none" stroke="#cfffac" d="M1035.33,-309.28C1035.33,-309.28 945.67,-309.28 945.67,-309.28 941.83,-309.28 938,-305.45 938,-301.61 938,-301.61 938,-293.95 938,-293.95 938,-290.11 941.83,-286.28 945.67,-286.28 945.67,-286.28 1035.33,-286.28 1035.33,-286.28 1039.17,-286.28 1043,-290.11 1043,-293.95 1043,-293.95 1043,-301.61 1043,-301.61 1043,-305.45 1039.17,-309.28 1035.33,-309.28"/>
<text text-anchor="middle" x="990.5" y="-294.08" font-family="Arial" font-size="14.00" fill="#cfffac">types/Empty.ts</text>
</g>
<!-- endpoints/imports.ts&#45;&gt;types/Empty.ts -->
<g id="edge18" class="edge">
<title>endpoints/imports.ts&#45;&gt;types/Empty.ts</title>
<path fill="none" stroke="#757575" d="M836.26,-297.78C865.47,-297.78 899.33,-297.78 927.78,-297.78"/>
<polygon fill="#757575" stroke="#757575" points="927.99,-301.28 937.99,-297.78 927.99,-294.28 927.99,-301.28"/>
</g>
<!-- endpoints/endpoint.ts&#45;&gt;services/documentation/documentation.ts -->
<g id="edge11" class="edge">
<title>endpoints/endpoint.ts&#45;&gt;services/documentation/documentation.ts</title>
<path fill="none" stroke="#757575" d="M1063.22,-168.58C1078.38,-164.9 1094.01,-160.07 1108,-153.78 1126,-145.69 1125.9,-135.65 1144,-127.78 1155.16,-122.93 1167.24,-118.98 1179.4,-115.76"/>
<polygon fill="#757575" stroke="#757575" points="1180.3,-119.14 1189.16,-113.33 1178.61,-112.35 1180.3,-119.14"/>
</g>
<!-- endpoints/types/Locals.ts -->
<g id="node10" class="node">
<title>endpoints/types/Locals.ts</title>
<path fill="none" stroke="#cfffac" d="M1693.33,-231.28C1693.33,-231.28 1540.67,-231.28 1540.67,-231.28 1536.83,-231.28 1533,-227.45 1533,-223.61 1533,-223.61 1533,-215.95 1533,-215.95 1533,-212.11 1536.83,-208.28 1540.67,-208.28 1540.67,-208.28 1693.33,-208.28 1693.33,-208.28 1697.17,-208.28 1701,-212.11 1701,-215.95 1701,-215.95 1701,-223.61 1701,-223.61 1701,-227.45 1697.17,-231.28 1693.33,-231.28"/>
<text text-anchor="middle" x="1617" y="-216.08" font-family="Arial" font-size="14.00" fill="#cfffac">endpoints/types/Locals.ts</text>
</g>
<!-- endpoints/endpoint.ts&#45;&gt;endpoints/types/Locals.ts -->
<g id="edge7" class="edge">
<title>endpoints/endpoint.ts&#45;&gt;endpoints/types/Locals.ts</title>
<path fill="none" stroke="#757575" d="M1063.03,-181.81C1146.41,-184.45 1288.32,-189.82 1410,-198.78 1446.87,-201.5 1487.37,-205.42 1522.62,-209.14"/>
<polygon fill="#757575" stroke="#757575" points="1522.59,-212.66 1532.9,-210.24 1523.33,-205.7 1522.59,-212.66"/>
</g>
<!-- endpoints/types/ResponseBody.ts -->
<g id="node11" class="node">
<title>endpoints/types/ResponseBody.ts</title>
<path fill="none" stroke="#c6c5fe" d="M1719.33,-389.28C1719.33,-389.28 1514.67,-389.28 1514.67,-389.28 1510.83,-389.28 1507,-385.45 1507,-381.61 1507,-381.61 1507,-373.95 1507,-373.95 1507,-370.11 1510.83,-366.28 1514.67,-366.28 1514.67,-366.28 1719.33,-366.28 1719.33,-366.28 1723.17,-366.28 1727,-370.11 1727,-373.95 1727,-373.95 1727,-381.61 1727,-381.61 1727,-385.45 1723.17,-389.28 1719.33,-389.28"/>
<text text-anchor="middle" x="1617" y="-374.08" font-family="Arial" font-size="14.00" fill="#c6c5fe">endpoints/types/ResponseBody.ts</text>
</g>
<!-- endpoints/endpoint.ts&#45;&gt;endpoints/types/ResponseBody.ts -->
<g id="edge8" class="edge">
<title>endpoints/endpoint.ts&#45;&gt;endpoints/types/ResponseBody.ts</title>
<path fill="none" stroke="#757575" d="M1011.27,-191.33C1034.76,-205.25 1074.95,-229.66 1108,-252.78 1124.61,-264.4 1125.36,-272.83 1144,-280.78 1253.9,-327.68 1293.14,-294.87 1410,-319.78 1465.89,-331.7 1528.99,-350.23 1570.46,-363.13"/>
<polygon fill="#757575" stroke="#757575" points="1569.67,-366.55 1580.25,-366.2 1571.76,-359.87 1569.67,-366.55"/>
</g>
<!-- endpoints/types/RestHandler.ts -->
<g id="node12" class="node">
<title>endpoints/types/RestHandler.ts</title>
<path fill="none" stroke="#c6c5fe" d="M1370.83,-231.28C1370.83,-231.28 1183.17,-231.28 1183.17,-231.28 1179.33,-231.28 1175.5,-227.45 1175.5,-223.61 1175.5,-223.61 1175.5,-215.95 1175.5,-215.95 1175.5,-212.11 1179.33,-208.28 1183.17,-208.28 1183.17,-208.28 1370.83,-208.28 1370.83,-208.28 1374.67,-208.28 1378.5,-212.11 1378.5,-215.95 1378.5,-215.95 1378.5,-223.61 1378.5,-223.61 1378.5,-227.45 1374.67,-231.28 1370.83,-231.28"/>
<text text-anchor="middle" x="1277" y="-216.08" font-family="Arial" font-size="14.00" fill="#c6c5fe">endpoints/types/RestHandler.ts</text>
</g>
<!-- endpoints/endpoint.ts&#45;&gt;endpoints/types/RestHandler.ts -->
<g id="edge9" class="edge">
<title>endpoints/endpoint.ts&#45;&gt;endpoints/types/RestHandler.ts</title>
<path fill="none" stroke="#757575" d="M1063.29,-189.88C1099.86,-195.02 1144.74,-201.33 1183.83,-206.82"/>
<polygon fill="#757575" stroke="#757575" points="1183.77,-210.35 1194.16,-208.28 1184.75,-203.42 1183.77,-210.35"/>
</g>
<!-- endpoints/endpoint.ts&#45;&gt;endpoints/types/RestMethod.ts -->
<g id="edge10" class="edge">
<title>endpoints/endpoint.ts&#45;&gt;endpoints/types/RestMethod.ts</title>
<path fill="none" stroke="#757575" d="M1023.79,-191.34C1049.26,-201.8 1084.33,-219.32 1108,-243.78 1132.6,-269.21 1115.79,-293.43 1144,-314.78 1150.69,-319.85 1158.11,-324 1165.91,-327.41"/>
<polygon fill="#757575" stroke="#757575" points="1164.64,-330.67 1175.23,-331.06 1167.2,-324.15 1164.64,-330.67"/>
</g>
<!-- endpoints/endpoint.ts&#45;&gt;services/documentation/types/DocumentationInput.ts -->
<g id="edge12" class="edge">
<title>endpoints/endpoint.ts&#45;&gt;services/documentation/types/DocumentationInput.ts</title>
<path fill="none" stroke="#757575" d="M1063.28,-176.27C1250.87,-166.83 1771.08,-138.94 2203,-99.78 2237.69,-96.64 2275.56,-92.48 2309.37,-88.52"/>
<polygon fill="#757575" stroke="#757575" points="2310.2,-91.94 2319.72,-87.29 2309.38,-84.99 2310.2,-91.94"/>
</g>
<!-- utils/responseUtils.ts -->
<g id="node15" class="node">
<title>utils/responseUtils.ts</title>
<path fill="none" stroke="#c6c5fe" d="M1339.33,-508.28C1339.33,-508.28 1214.67,-508.28 1214.67,-508.28 1210.83,-508.28 1207,-504.45 1207,-500.61 1207,-500.61 1207,-492.95 1207,-492.95 1207,-489.11 1210.83,-485.28 1214.67,-485.28 1214.67,-485.28 1339.33,-485.28 1339.33,-485.28 1343.17,-485.28 1347,-489.11 1347,-492.95 1347,-492.95 1347,-500.61 1347,-500.61 1347,-504.45 1343.17,-508.28 1339.33,-508.28"/>
<text text-anchor="middle" x="1277" y="-493.08" font-family="Arial" font-size="14.00" fill="#c6c5fe">utils/responseUtils.ts</text>
</g>
<!-- endpoints/endpoint.ts&#45;&gt;utils/responseUtils.ts -->
<g id="edge13" class="edge">
<title>endpoints/endpoint.ts&#45;&gt;utils/responseUtils.ts</title>
<path fill="none" stroke="#757575" d="M1010.41,-191.4C1035.63,-207.72 1080.31,-239.65 1108,-276.78 1132.28,-309.34 1121.48,-326.98 1144,-360.78 1175.71,-408.38 1225.22,-454.05 1253.74,-478.46"/>
<polygon fill="#757575" stroke="#757575" points="1251.63,-481.26 1261.53,-485.05 1256.15,-475.92 1251.63,-481.26"/>
</g>
<!-- endpoints/types/ResponseStatus.ts -->
<g id="node19" class="node">
<title>endpoints/types/ResponseStatus.ts</title>
<path fill="none" stroke="#cfffac" d="M2119.83,-389.28C2119.83,-389.28 1907.17,-389.28 1907.17,-389.28 1903.33,-389.28 1899.5,-385.45 1899.5,-381.61 1899.5,-381.61 1899.5,-373.95 1899.5,-373.95 1899.5,-370.11 1903.33,-366.28 1907.17,-366.28 1907.17,-366.28 2119.83,-366.28 2119.83,-366.28 2123.67,-366.28 2127.5,-370.11 2127.5,-373.95 2127.5,-373.95 2127.5,-381.61 2127.5,-381.61 2127.5,-385.45 2123.67,-389.28 2119.83,-389.28"/>
<text text-anchor="middle" x="2013.5" y="-374.08" font-family="Arial" font-size="14.00" fill="#cfffac">endpoints/types/ResponseStatus.ts</text>
</g>
<!-- endpoints/types/ResponseBody.ts&#45;&gt;endpoints/types/ResponseStatus.ts -->
<g id="edge20" class="edge">
<title>endpoints/types/ResponseBody.ts&#45;&gt;endpoints/types/ResponseStatus.ts</title>
<path fill="none" stroke="#757575" d="M1727.1,-377.78C1777.35,-377.78 1837.19,-377.78 1889.08,-377.78"/>
<polygon fill="#757575" stroke="#757575" points="1889.34,-381.28 1899.34,-377.78 1889.34,-374.28 1889.34,-381.28"/>
</g>
<!-- endpoints/types/RestHandler.ts&#45;&gt;endpoints/types/Locals.ts -->
<g id="edge21" class="edge">
<title>endpoints/types/RestHandler.ts&#45;&gt;endpoints/types/Locals.ts</title>
<path fill="none" stroke="#757575" d="M1378.95,-219.78C1424.52,-219.78 1478.01,-219.78 1522.64,-219.78"/>
<polygon fill="#757575" stroke="#757575" points="1522.9,-223.28 1532.9,-219.78 1522.9,-216.28 1522.9,-223.28"/>
</g>
<!-- utils/responseUtils.ts&#45;&gt;services/logger/logger.ts -->
<g id="edge60" class="edge">
<title>utils/responseUtils.ts&#45;&gt;services/logger/logger.ts</title>
<path fill="none" stroke="#757575" d="M1340.61,-508.29C1362.61,-512.55 1387.46,-517.61 1410,-522.78 1463.27,-535 1523.7,-551.11 1565.26,-562.55"/>
<polygon fill="#757575" stroke="#757575" points="1564.57,-565.99 1575.15,-565.27 1566.44,-559.24 1564.57,-565.99"/>
</g>
<!-- utils/responseUtils.ts&#45;&gt;endpoints/types/ResponseBody.ts -->
<g id="edge59" class="edge">
<title>utils/responseUtils.ts&#45;&gt;endpoints/types/ResponseBody.ts</title>
<path fill="none" stroke="#757575" d="M1310.72,-485.26C1372.3,-463.58 1505.38,-416.73 1573.68,-392.68"/>
<polygon fill="#757575" stroke="#757575" points="1575,-395.93 1583.27,-389.31 1572.67,-389.33 1575,-395.93"/>
</g>
<!-- utils/responseUtils.ts&#45;&gt;services/logger/types/LoggerOptions.ts -->
<g id="edge61" class="edge">
<title>utils/responseUtils.ts&#45;&gt;services/logger/types/LoggerOptions.ts</title>
<path fill="none" stroke="#757575" d="M1347.1,-496.78C1468.27,-496.78 1721.06,-496.78 1877.81,-496.78"/>
<polygon fill="#757575" stroke="#757575" points="1878,-500.28 1888,-496.78 1878,-493.28 1878,-500.28"/>
</g>
<!-- endpoints/types/Response.ts&#45;&gt;endpoints/types/Locals.ts -->
<g id="edge19" class="edge">
<title>endpoints/types/Response.ts&#45;&gt;endpoints/types/Locals.ts</title>
<path fill="none" stroke="#757575" d="M1372.15,-249.36C1419.19,-243.65 1475.93,-236.77 1522.84,-231.08"/>
<polygon fill="#757575" stroke="#757575" points="1523.49,-234.53 1533,-229.85 1522.65,-227.58 1523.49,-234.53"/>
</g>
<!-- endpoints/user/getUsers.ts&#45;&gt;endpoints/imports.ts -->
<g id="edge22" class="edge">
<title>endpoints/user/getUsers.ts&#45;&gt;endpoints/imports.ts</title>
<path fill="none" stroke="#757575" d="M629.2,-370.23C640.07,-367.68 650.91,-364.56 661,-360.78 691,-349.54 722.06,-329.7 742.55,-315.28"/>
<polygon fill="#757575" stroke="#757575" points="744.82,-317.96 750.9,-309.28 740.74,-312.27 744.82,-317.96"/>
</g>
<!-- endpoints/user/getUsers.ts&#45;&gt;entities/user.ts -->
<g id="edge23" class="edge">
<title>endpoints/user/getUsers.ts&#45;&gt;entities/user.ts</title>
<path fill="none" stroke="#757575" d="M631.08,-381.39C718.97,-380.99 852.02,-380.4 928.88,-380.05"/>
<polygon fill="#757575" stroke="#757575" points="928.9,-383.55 938.88,-380.01 928.87,-376.55 928.9,-383.55"/>
</g>
<!-- index.ts -->
<g id="node21" class="node">
<title>index.ts</title>
<path fill="none" stroke="#c6c5fe" d="M55.33,-311.28C55.33,-311.28 7.67,-311.28 7.67,-311.28 3.83,-311.28 0,-307.45 0,-303.61 0,-303.61 0,-295.95 0,-295.95 0,-292.11 3.83,-288.28 7.67,-288.28 7.67,-288.28 55.33,-288.28 55.33,-288.28 59.17,-288.28 63,-292.11 63,-295.95 63,-295.95 63,-303.61 63,-303.61 63,-307.45 59.17,-311.28 55.33,-311.28"/>
<text text-anchor="middle" x="31.5" y="-296.08" font-family="Arial" font-size="14.00" fill="#c6c5fe">index.ts</text>
</g>
<!-- index.ts&#45;&gt;app.ts -->
<g id="edge24" class="edge">
<title>index.ts&#45;&gt;app.ts</title>
<path fill="none" stroke="#757575" d="M63.04,-299.78C71.27,-299.78 80.26,-299.78 88.77,-299.78"/>
<polygon fill="#757575" stroke="#757575" points="88.83,-303.28 98.83,-299.78 88.83,-296.28 88.83,-303.28"/>
</g>
<!-- middlewares/authMiddleware.ts&#45;&gt;services/logger/logger.ts -->
<g id="edge26" class="edge">
<title>middlewares/authMiddleware.ts&#45;&gt;services/logger/logger.ts</title>
<path fill="none" stroke="#757575" d="M646.28,-509.72C663.22,-511.12 680.6,-512.52 697,-513.78 1000.59,-537.04 1360.91,-560.55 1525.67,-571.07"/>
<polygon fill="#757575" stroke="#757575" points="1525.56,-574.57 1535.76,-571.72 1526,-567.59 1525.56,-574.57"/>
</g>
<!-- middlewares/authMiddleware.ts&#45;&gt;utils/responseUtils.ts -->
<g id="edge27" class="edge">
<title>middlewares/authMiddleware.ts&#45;&gt;utils/responseUtils.ts</title>
<path fill="none" stroke="#757575" d="M646.12,-500.22C793.86,-499.41 1063.35,-497.94 1196.8,-497.21"/>
<polygon fill="#757575" stroke="#757575" points="1196.96,-500.71 1206.94,-497.16 1196.92,-493.71 1196.96,-500.71"/>
</g>
<!-- services/auth/auth.ts -->
<g id="node23" class="node">
<title>services/auth/auth.ts</title>
<path fill="none" stroke="#c6c5fe" d="M829.33,-432.28C829.33,-432.28 704.67,-432.28 704.67,-432.28 700.83,-432.28 697,-428.45 697,-424.61 697,-424.61 697,-416.95 697,-416.95 697,-413.11 700.83,-409.28 704.67,-409.28 704.67,-409.28 829.33,-409.28 829.33,-409.28 833.17,-409.28 837,-413.11 837,-416.95 837,-416.95 837,-424.61 837,-424.61 837,-428.45 833.17,-432.28 829.33,-432.28"/>
<text text-anchor="middle" x="767" y="-417.08" font-family="Arial" font-size="14.00" fill="#c6c5fe">services/auth/auth.ts</text>
</g>
<!-- middlewares/authMiddleware.ts&#45;&gt;services/auth/auth.ts -->
<g id="edge25" class="edge">
<title>middlewares/authMiddleware.ts&#45;&gt;services/auth/auth.ts</title>
<path fill="none" stroke="#757575" d="M575.85,-489.15C615.1,-475.04 681.34,-451.22 724.36,-435.75"/>
<polygon fill="#757575" stroke="#757575" points="725.74,-438.98 733.97,-432.3 723.37,-432.39 725.74,-438.98"/>
</g>
<!-- services/auth/auth.ts&#45;&gt;entities/user.ts -->
<g id="edge40" class="edge">
<title>services/auth/auth.ts&#45;&gt;entities/user.ts</title>
<path fill="none" stroke="#757575" d="M824.07,-409.27C839.88,-406.11 857.1,-402.74 873,-399.78 891.13,-396.41 910.89,-392.94 928.9,-389.86"/>
<polygon fill="#757575" stroke="#757575" points="929.71,-393.27 938.98,-388.14 928.54,-386.37 929.71,-393.27"/>
</g>
<!-- services/auth/types/TokenPayload.ts -->
<g id="node27" class="node">
<title>services/auth/types/TokenPayload.ts</title>
<path fill="none" stroke="#cfffac" d="M1100.33,-432.28C1100.33,-432.28 880.67,-432.28 880.67,-432.28 876.83,-432.28 873,-428.45 873,-424.61 873,-424.61 873,-416.95 873,-416.95 873,-413.11 876.83,-409.28 880.67,-409.28 880.67,-409.28 1100.33,-409.28 1100.33,-409.28 1104.17,-409.28 1108,-413.11 1108,-416.95 1108,-416.95 1108,-424.61 1108,-424.61 1108,-428.45 1104.17,-432.28 1100.33,-432.28"/>
<text text-anchor="middle" x="990.5" y="-417.08" font-family="Arial" font-size="14.00" fill="#cfffac">services/auth/types/TokenPayload.ts</text>
</g>
<!-- services/auth/auth.ts&#45;&gt;services/auth/types/TokenPayload.ts -->
<g id="edge41" class="edge">
<title>services/auth/auth.ts&#45;&gt;services/auth/types/TokenPayload.ts</title>
<path fill="none" stroke="#757575" d="M837.17,-420.78C845.38,-420.78 853.95,-420.78 862.66,-420.78"/>
<polygon fill="#757575" stroke="#757575" points="862.92,-424.28 872.92,-420.78 862.92,-417.28 862.92,-424.28"/>
</g>
<!-- middlewares/loggerMiddleware.ts&#45;&gt;services/logger/logger.ts -->
<g id="edge28" class="edge">
<title>middlewares/loggerMiddleware.ts&#45;&gt;services/logger/logger.ts</title>
<path fill="none" stroke="#757575" d="M612.83,-626.3C639.11,-630.13 669.36,-633.9 697,-635.78 759.08,-640.01 774.82,-638.13 837,-635.78 1086.82,-626.33 1380.75,-599.9 1525.75,-585.84"/>
<polygon fill="#757575" stroke="#757575" points="1526.32,-589.31 1535.93,-584.85 1525.64,-582.34 1526.32,-589.31"/>
</g>
<!-- utils/JSONUtils.ts -->
<g id="node25" class="node">
<title>utils/JSONUtils.ts</title>
<path fill="none" stroke="#cfffac" d="M820.33,-626.28C820.33,-626.28 713.67,-626.28 713.67,-626.28 709.83,-626.28 706,-622.45 706,-618.61 706,-618.61 706,-610.95 706,-610.95 706,-607.11 709.83,-603.28 713.67,-603.28 713.67,-603.28 820.33,-603.28 820.33,-603.28 824.17,-603.28 828,-607.11 828,-610.95 828,-610.95 828,-618.61 828,-618.61 828,-622.45 824.17,-626.28 820.33,-626.28"/>
<text text-anchor="middle" x="767" y="-611.08" font-family="Arial" font-size="14.00" fill="#cfffac">utils/JSONUtils.ts</text>
</g>
<!-- middlewares/loggerMiddleware.ts&#45;&gt;utils/JSONUtils.ts -->
<g id="edge29" class="edge">
<title>middlewares/loggerMiddleware.ts&#45;&gt;utils/JSONUtils.ts</title>
<path fill="none" stroke="#757575" d="M651.82,-614.78C666.76,-614.78 681.77,-614.78 695.77,-614.78"/>
<polygon fill="#757575" stroke="#757575" points="695.77,-618.28 705.77,-614.78 695.77,-611.28 695.77,-618.28"/>
</g>
<!-- middlewares/securityMiddleware.ts&#45;&gt;services/logger/logger.ts -->
<g id="edge30" class="edge">
<title>middlewares/securityMiddleware.ts&#45;&gt;services/logger/logger.ts</title>
<path fill="none" stroke="#757575" d="M1104.23,-576.78C1225.01,-576.78 1414.31,-576.78 1525.67,-576.78"/>
<polygon fill="#757575" stroke="#757575" points="1525.87,-580.28 1535.87,-576.78 1525.87,-573.28 1525.87,-580.28"/>
</g>
<!-- middlewares/securityMiddleware.ts&#45;&gt;utils/responseUtils.ts -->
<g id="edge31" class="edge">
<title>middlewares/securityMiddleware.ts&#45;&gt;utils/responseUtils.ts</title>
<path fill="none" stroke="#757575" d="M1032.56,-565.23C1083.41,-550.94 1170.02,-526.58 1225.05,-511.11"/>
<polygon fill="#757575" stroke="#757575" points="1226.27,-514.4 1234.95,-508.33 1224.37,-507.66 1226.27,-514.4"/>
</g>
<!-- services/documentation/external/openAPI3.ts&#45;&gt;services/documentation/types/DocumentationInput.ts -->
<g id="edge47" class="edge">
<title>services/documentation/external/openAPI3.ts&#45;&gt;services/documentation/types/DocumentationInput.ts</title>
<path fill="none" stroke="#757575" d="M1710.43,-34.3C1745.9,-38.41 1786.79,-42.76 1824,-45.78 1961.62,-56.97 2117.74,-64.71 2234.37,-69.53"/>
<polygon fill="#757575" stroke="#757575" points="2234.33,-73.03 2244.46,-69.94 2234.62,-66.03 2234.33,-73.03"/>
</g>
<!-- services/documentation/external/tsJsonSchemaGenerator.ts -->
<g id="node31" class="node">
<title>services/documentation/external/tsJsonSchemaGenerator.ts</title>
<path fill="none" stroke="#c6c5fe" d="M2195.33,-37.28C2195.33,-37.28 1831.67,-37.28 1831.67,-37.28 1827.83,-37.28 1824,-33.45 1824,-29.61 1824,-29.61 1824,-21.95 1824,-21.95 1824,-18.11 1827.83,-14.28 1831.67,-14.28 1831.67,-14.28 2195.33,-14.28 2195.33,-14.28 2199.17,-14.28 2203,-18.11 2203,-21.95 2203,-21.95 2203,-29.61 2203,-29.61 2203,-33.45 2199.17,-37.28 2195.33,-37.28"/>
<text text-anchor="middle" x="2013.5" y="-22.08" font-family="Arial" font-size="14.00" fill="#c6c5fe">services/documentation/external/tsJsonSchemaGenerator.ts</text>
</g>
<!-- services/documentation/external/openAPI3.ts&#45;&gt;services/documentation/external/tsJsonSchemaGenerator.ts -->
<g id="edge46" class="edge">
<title>services/documentation/external/openAPI3.ts&#45;&gt;services/documentation/external/tsJsonSchemaGenerator.ts</title>
<path fill="none" stroke="#757575" d="M1761.26,-23.87C1778.3,-24 1795.93,-24.13 1813.57,-24.27"/>
<polygon fill="#757575" stroke="#757575" points="1813.93,-27.77 1823.96,-24.35 1813.98,-20.77 1813.93,-27.77"/>
</g>
<!-- services/documentation/types/DocumentationOutput.ts -->
<g id="node32" class="node">
<title>services/documentation/types/DocumentationOutput.ts</title>
<path fill="none" stroke="#cfffac" d="M2577.33,-27.28C2577.33,-27.28 2246.67,-27.28 2246.67,-27.28 2242.83,-27.28 2239,-23.45 2239,-19.61 2239,-19.61 2239,-11.95 2239,-11.95 2239,-8.11 2242.83,-4.28 2246.67,-4.28 2246.67,-4.28 2577.33,-4.28 2577.33,-4.28 2581.17,-4.28 2585,-8.11 2585,-11.95 2585,-11.95 2585,-19.61 2585,-19.61 2585,-23.45 2581.17,-27.28 2577.33,-27.28"/>
<text text-anchor="middle" x="2412" y="-12.08" font-family="Arial" font-size="14.00" fill="#cfffac">services/documentation/types/DocumentationOutput.ts</text>
</g>
<!-- services/documentation/external/openAPI3.ts&#45;&gt;services/documentation/types/DocumentationOutput.ts -->
<g id="edge48" class="edge">
<title>services/documentation/external/openAPI3.ts&#45;&gt;services/documentation/types/DocumentationOutput.ts</title>
<path fill="none" stroke="#757575" d="M1729.34,-11.27C1759.98,-8.58 1793.24,-6.12 1824,-4.78 1992.28,2.56 2034.61,-0.33 2203,-4.78 2211.38,-5 2219.95,-5.27 2228.6,-5.59"/>
<polygon fill="#757575" stroke="#757575" points="2228.66,-9.09 2238.79,-5.97 2228.93,-2.09 2228.66,-9.09"/>
</g>
<!-- services/documentation/external/tsJsonSchemaGenerator.ts&#45;&gt;services/documentation/types/DocumentationInput.ts -->
<g id="edge49" class="edge">
<title>services/documentation/external/tsJsonSchemaGenerator.ts&#45;&gt;services/documentation/types/DocumentationInput.ts</title>
<path fill="none" stroke="#757575" d="M2105.96,-37.32C2166.86,-44.99 2246.91,-55.09 2309.73,-63.01"/>
<polygon fill="#757575" stroke="#757575" points="2309.29,-66.48 2319.65,-64.26 2310.17,-59.54 2309.29,-66.48"/>
</g>
<!-- services/documentation/external/tsJsonSchemaGenerator.ts&#45;&gt;services/documentation/types/DocumentationOutput.ts -->
<g id="edge50" class="edge">
<title>services/documentation/external/tsJsonSchemaGenerator.ts&#45;&gt;services/documentation/types/DocumentationOutput.ts</title>
<path fill="none" stroke="#757575" d="M2203.17,-21.02C2211.61,-20.81 2220.08,-20.6 2228.51,-20.38"/>
<polygon fill="#757575" stroke="#757575" points="2228.86,-23.88 2238.77,-20.13 2228.69,-16.88 2228.86,-23.88"/>
</g>
<!-- types/NodeEnvironment.ts -->
<g id="node34" class="node">
<title>types/NodeEnvironment.ts</title>
<path fill="none" stroke="#cfffac" d="M2492.33,-588.28C2492.33,-588.28 2331.67,-588.28 2331.67,-588.28 2327.83,-588.28 2324,-584.45 2324,-580.61 2324,-580.61 2324,-572.95 2324,-572.95 2324,-569.11 2327.83,-565.28 2331.67,-565.28 2331.67,-565.28 2492.33,-565.28 2492.33,-565.28 2496.17,-565.28 2500,-569.11 2500,-572.95 2500,-572.95 2500,-580.61 2500,-580.61 2500,-584.45 2496.17,-588.28 2492.33,-588.28"/>
<text text-anchor="middle" x="2412" y="-573.08" font-family="Arial" font-size="14.00" fill="#cfffac">types/NodeEnvironment.ts</text>
</g>
<!-- services/logger/external/google.ts&#45;&gt;types/NodeEnvironment.ts -->
<g id="edge51" class="edge">
<title>services/logger/external/google.ts&#45;&gt;types/NodeEnvironment.ts</title>
<path fill="none" stroke="#757575" d="M2122.58,-576.78C2182.29,-576.78 2255.85,-576.78 2313.74,-576.78"/>
<polygon fill="#757575" stroke="#757575" points="2314,-580.28 2324,-576.78 2314,-573.28 2314,-580.28"/>
</g>
<!-- services/logger/types/LogContext.ts -->
<g id="node36" class="node">
<title>services/logger/types/LogContext.ts</title>
<path fill="none" stroke="#c6c5fe" d="M2519.33,-629.28C2519.33,-629.28 2304.67,-629.28 2304.67,-629.28 2300.83,-629.28 2297,-625.45 2297,-621.61 2297,-621.61 2297,-613.95 2297,-613.95 2297,-610.11 2300.83,-606.28 2304.67,-606.28 2304.67,-606.28 2519.33,-606.28 2519.33,-606.28 2523.17,-606.28 2527,-610.11 2527,-613.95 2527,-613.95 2527,-621.61 2527,-621.61 2527,-625.45 2523.17,-629.28 2519.33,-629.28"/>
<text text-anchor="middle" x="2412" y="-614.08" font-family="Arial" font-size="14.00" fill="#c6c5fe">services/logger/types/LogContext.ts</text>
</g>
<!-- services/logger/external/sentry.ts&#45;&gt;services/logger/types/LogContext.ts -->
<g id="edge52" class="edge">
<title>services/logger/external/sentry.ts&#45;&gt;services/logger/types/LogContext.ts</title>
<path fill="none" stroke="#757575" d="M2120.23,-617.78C2171.42,-617.78 2233.21,-617.78 2286.65,-617.78"/>
<polygon fill="#757575" stroke="#757575" points="2286.87,-621.28 2296.87,-617.78 2286.87,-614.28 2286.87,-621.28"/>
</g>
<!-- services/logger/external/sentry.ts&#45;&gt;services/logger/types/Severity.ts -->
<g id="edge53" class="edge">
<title>services/logger/external/sentry.ts&#45;&gt;services/logger/types/Severity.ts</title>
<path fill="none" stroke="#757575" d="M2116.06,-629.3C2154.51,-633.14 2198.72,-636.9 2239,-638.78 2392.61,-645.95 2431.65,-650.26 2585,-638.78 2606.72,-637.16 2630.18,-634.13 2651.55,-630.86"/>
<polygon fill="#757575" stroke="#757575" points="2652.19,-634.31 2661.53,-629.3 2651.11,-627.39 2652.19,-634.31"/>
</g>
<!-- services/logger/types/LogContext.ts&#45;&gt;services/logger/types/Severity.ts -->
<g id="edge58" class="edge">
<title>services/logger/types/LogContext.ts&#45;&gt;services/logger/types/Severity.ts</title>
<path fill="none" stroke="#757575" d="M2527.22,-617.78C2554.4,-617.78 2583.39,-617.78 2610.55,-617.78"/>
<polygon fill="#757575" stroke="#757575" points="2610.87,-621.28 2620.87,-617.78 2610.87,-614.28 2610.87,-621.28"/>
</g>
</g>
</svg>
